<?xml version="1.0" standalone="no"?>
<!DOCTYPE svg PUBLIC "-//W3C//DTD SVG 20010904//EN"
 "http://www.w3.org/TR/2001/REC-SVG-20010904/DTD/svg10.dtd">
<svg version="1.0" xmlns="http://www.w3.org/2000/svg"
 width="1110.000000pt" height="1110.000000pt" viewBox="0 0 1110.000000 1110.000000"
 preserveAspectRatio="xMidYMid meet">
<metadata>
Created by potrace 1.14, written by Peter Selinger 2001-2017
</metadata>
<g transform="translate(0.000000,1110.000000) scale(0.100000,-0.100000)"
fill="#000000" stroke="none">
<path d="M7275 11002 c-11 -2 -24 -8 -29 -13 -6 -5 -18 -9 -28 -9 -10 0 -18
-4 -18 -10 0 -5 -7 -10 -16 -10 -9 0 -29 -9 -45 -21 -16 -11 -29 -17 -29 -13
0 4 -8 0 -17 -8 -10 -8 -25 -18 -33 -21 -8 -4 -37 -20 -65 -36 -27 -16 -81
-48 -120 -70 -87 -50 -126 -74 -140 -84 -9 -7 -304 -191 -380 -238 -16 -10
-35 -22 -41 -27 -5 -5 -21 -15 -35 -22 -20 -11 -454 -294 -511 -333 -9 -7 -56
-39 -105 -71 -48 -33 -90 -62 -93 -65 -3 -4 -17 -12 -32 -20 -16 -8 -28 -18
-28 -23 0 -4 -5 -8 -10 -8 -10 0 -69 -38 -80 -51 -10 -12 -40 0 -102 42 -34
24 -64 47 -66 52 -2 4 -10 7 -17 7 -7 0 -15 3 -17 8 -2 6 -237 165 -290 197
-9 6 -44 29 -78 53 -34 23 -66 42 -71 42 -5 0 -9 5 -9 12 0 6 -3 9 -6 5 -3 -3
-11 -2 -18 3 -56 46 -75 60 -80 60 -3 0 -64 38 -136 85 -72 47 -135 85 -140
85 -6 0 -10 4 -10 9 0 5 -8 11 -17 15 -10 3 -56 30 -103 60 -77 50 -367 225
-415 252 -11 6 -49 28 -85 48 -101 57 -189 97 -221 101 -26 3 -31 -1 -44 -32
-8 -20 -17 -51 -19 -69 -3 -18 -7 -37 -9 -41 -3 -4 -8 -24 -11 -43 -3 -19 -8
-46 -11 -60 -3 -14 -8 -45 -11 -70 -3 -25 -7 -52 -9 -60 -11 -59 -31 -201 -40
-290 -2 -25 -7 -61 -10 -80 -5 -37 -9 -65 -20 -169 -4 -35 -9 -80 -11 -100 -2
-20 -6 -61 -9 -91 -3 -30 -7 -73 -10 -95 -2 -22 -7 -67 -11 -100 -7 -71 -9
-75 -35 -75 -10 0 -19 -5 -19 -11 0 -5 -4 -8 -9 -4 -9 5 -200 -54 -211 -65 -3
-3 -9 -5 -15 -5 -36 -1 -337 -169 -413 -229 -116 -94 -159 -132 -225 -200 -82
-85 -170 -195 -227 -286 -19 -30 -39 -58 -45 -62 -5 -4 -6 -8 -1 -8 5 0 3 -8
-5 -17 -13 -15 -61 -108 -65 -123 -1 -5 -11 -29 -39 -95 -14 -33 -46 -125 -50
-145 0 -3 -9 -36 -18 -75 -34 -137 -45 -245 -41 -425 3 -184 5 -202 29 -315 9
-38 18 -81 21 -95 7 -34 52 -166 71 -210 34 -78 77 -166 94 -191 10 -14 16
-29 12 -33 -3 -3 -2 -6 4 -6 6 0 16 -13 23 -30 7 -16 16 -30 20 -30 4 0 11
-11 14 -25 4 -14 11 -25 16 -25 5 0 16 -12 24 -27 8 -16 28 -42 43 -59 15 -18
44 -51 63 -74 74 -90 328 -310 357 -310 5 0 18 -8 29 -17 10 -10 36 -27 57
-38 46 -24 56 -36 25 -30 -57 11 -156 20 -168 15 -5 -2 -31 -6 -82 -11 -16 -2
-28 -7 -28 -12 0 -4 -4 -5 -10 -2 -14 8 -160 -56 -188 -82 -7 -7 -17 -13 -22
-13 -5 0 -20 -10 -34 -22 -47 -44 -66 -58 -77 -58 -5 0 -7 -4 -4 -10 3 -5 2
-10 -4 -10 -8 0 -46 -38 -111 -110 -93 -103 -269 -416 -330 -585 -66 -185 -84
-238 -115 -353 -33 -124 -71 -297 -80 -364 -3 -18 -8 -44 -11 -58 -3 -14 -8
-43 -9 -65 -2 -22 -4 -42 -5 -45 -4 -9 -6 -23 -14 -95 -4 -38 -10 -88 -13
-110 -24 -187 -23 -871 2 -996 3 -13 8 -51 11 -84 8 -88 12 -117 17 -145 3
-14 8 -43 11 -65 6 -41 12 -75 22 -122 10 -50 25 -127 29 -150 2 -11 8 -36 13
-55 6 -18 20 -69 32 -113 12 -44 24 -87 27 -95 3 -8 7 -22 9 -31 4 -21 86
-239 112 -300 30 -69 101 -210 123 -244 10 -16 22 -37 26 -45 13 -28 115 -172
146 -208 74 -82 136 -141 192 -182 59 -44 165 -103 165 -93 0 3 6 1 13 -4 52
-42 244 -60 358 -33 53 12 130 41 159 60 8 6 22 13 30 17 8 3 26 15 39 25 24
19 24 19 59 -19 130 -142 275 -282 376 -365 15 -12 35 -31 44 -41 9 -9 22 -17
28 -17 7 0 14 -4 16 -8 1 -4 23 -23 48 -42 25 -19 47 -37 50 -40 12 -12 70
-50 76 -50 4 0 14 -9 24 -20 16 -19 16 -24 -12 -108 l-30 -88 43 -69 c24 -39
46 -72 49 -75 3 -3 43 -61 89 -130 47 -69 87 -127 91 -130 3 -3 34 -45 70 -95
35 -49 70 -96 77 -103 7 -8 18 -23 24 -34 14 -25 46 -18 107 23 23 16 45 29
48 29 9 0 119 74 122 82 2 5 8 8 13 8 11 0 173 110 261 177 46 35 62 42 90 39
18 -3 33 -5 33 -6 0 -1 7 -3 15 -5 8 -1 49 -10 90 -19 89 -19 126 -26 160 -31
142 -19 185 -24 253 -30 32 -2 62 -7 67 -10 6 -4 10 -2 10 4 0 6 11 7 28 2 48
-13 449 -1 527 16 11 2 40 6 65 8 25 2 56 7 70 10 74 16 88 16 102 -2 17 -23
94 -83 107 -83 5 0 11 -4 13 -8 3 -10 160 -117 295 -203 88 -56 96 -59 155
-59 48 0 67 4 78 17 59 70 395 553 384 553 -3 0 2 7 10 16 16 16 22 64 8 64
-4 0 -9 12 -10 27 -1 15 -7 32 -12 37 -21 21 -8 42 45 71 30 16 55 33 55 37 0
4 6 8 14 8 8 0 21 6 28 13 7 7 31 24 53 37 22 13 46 30 53 37 7 7 17 13 21 13
5 0 21 11 37 25 33 29 31 28 104 82 30 22 71 56 92 74 20 19 47 42 60 52 56
42 327 321 373 384 12 16 33 13 115 -16 30 -11 79 -22 109 -26 30 -3 59 -9 64
-12 6 -3 7 -1 3 5 -5 9 0 9 18 2 16 -6 27 -6 31 1 4 5 10 7 15 4 12 -7 160 26
160 37 0 4 5 8 12 8 14 0 101 40 108 50 3 4 17 13 31 21 38 20 93 66 152 127
71 73 79 82 107 122 14 19 34 45 45 58 11 13 32 44 48 70 38 66 112 196 113
202 10 33 18 50 23 50 6 0 29 52 36 80 3 10 18 46 35 85 15 34 30 74 35 95 1
3 4 12 7 20 30 76 86 272 94 323 2 15 9 38 16 50 6 12 10 23 9 25 -1 1 0 15 3
30 8 39 18 94 21 119 2 11 5 29 9 40 3 10 8 36 11 58 3 23 7 50 9 61 2 12 7
45 10 75 4 30 9 72 13 94 3 22 7 56 9 75 1 19 6 78 10 130 16 204 8 791 -13
905 -3 17 -5 37 -5 45 0 22 -22 188 -34 250 -2 14 -7 39 -9 56 -3 17 -9 43
-14 57 -5 14 -7 27 -5 30 3 3 0 25 -7 48 -7 24 -13 51 -14 59 -2 8 -10 44 -19
80 -29 113 -30 116 -38 140 -3 8 -11 35 -18 60 -7 25 -16 54 -20 65 -4 11 -13
34 -18 50 -6 17 -13 39 -18 50 -4 11 -8 25 -10 30 -6 26 -80 191 -126 280 -48
94 -145 253 -171 280 -7 7 -28 32 -47 56 -69 85 -159 168 -240 220 -89 57
-175 92 -255 105 -56 8 -158 12 -169 6 -5 -3 -27 -7 -49 -9 -45 -4 -49 -9 41
65 49 39 146 137 187 186 17 20 39 47 50 59 29 32 125 176 125 187 0 6 5 10
10 10 6 0 10 5 10 10 0 6 11 27 24 48 12 20 24 40 25 44 1 4 14 36 30 70 29
64 43 97 46 111 2 4 4 9 5 12 1 3 3 8 5 13 1 4 5 14 8 22 20 46 67 253 72 315
2 22 4 40 5 40 4 0 9 102 9 195 0 96 -4 185 -9 185 -1 0 -3 16 -5 35 -5 65
-14 115 -35 190 -11 41 -23 85 -26 98 -14 64 -141 345 -175 386 -5 6 -21 29
-36 51 -50 75 -68 101 -108 150 -42 51 -222 235 -230 235 -3 0 -31 21 -62 46
-104 85 -303 202 -415 246 -27 10 -70 27 -98 37 -27 11 -50 17 -50 14 0 -3 -6
-1 -12 4 -7 6 -38 16 -68 23 -30 7 -60 17 -66 22 -7 5 -16 8 -20 7 -56 -10
-80 14 -83 85 -1 30 -4 64 -6 74 -6 31 -19 174 -19 214 -1 21 -3 38 -6 38 -3
0 -6 15 -7 33 -1 29 -4 62 -18 187 -3 25 -8 56 -11 70 -3 14 -7 43 -9 65 -1
22 -6 67 -11 100 -4 33 -8 70 -8 83 -1 12 -3 22 -6 22 -3 0 -6 8 -6 18 0 15
-4 45 -18 137 -4 25 -33 164 -53 253 -6 26 -30 40 -58 34z m-1807 -2410 c6
-18 -15 -14 -22 4 -4 10 -1 14 6 12 6 -2 14 -10 16 -16z"/>
</g>
</svg>
